<svg width="132" height="52" viewBox="0 0 132 52" fill="none" xmlns="http://www.w3.org/2000/svg">
<path d="M119.231 38.5508H131.653L116.929 -0.00012207H104.507H103.474L77.3477 38.5508H90.7978H106.93L114.678 29.6222L96.9809 29.4272L108.981 11.7176L119.231 38.5508Z" fill="#F3973D"/>
<path d="M43.0144 30.615L48.1925 18.33L48.6835 17.2073L36.3125 17.0891L33.0704 17.0595L25.3125 23.79H36.822C36.0567 25.4278 34.9718 26.7847 33.673 27.7281C32.3742 28.6716 30.906 29.1695 29.4115 29.1732H16.3689L19.6481 21.4086L21.3988 17.2723C22.4123 14.8765 23.9145 12.8748 25.7465 11.4789C27.5785 10.083 29.6721 9.34475 31.806 9.34227H45.0014L55.779 0.0118256H23.3302C21.3589 0.0123501 19.4189 0.641924 17.687 1.84324C15.9551 3.04455 14.4862 4.77946 13.414 6.89C13.2426 7.22681 13.0759 7.57545 12.9277 7.9359L7.74958 20.2032L7.25863 21.2845L-0.0175781 38.5214H32.5934C34.5647 38.5208 36.5046 37.8913 38.2366 36.69C39.9685 35.4886 41.4374 33.7537 42.5096 31.6432C42.6995 31.33 42.8616 30.9755 43.0144 30.615Z" fill="#F3973D"/>
<path d="M88.4506 18.4954C89.3677 17.3803 90.1819 16.1353 90.8776 14.7845C91.086 14.3768 91.2805 13.9632 91.4704 13.5318C91.6534 13.1078 91.8187 12.6719 91.966 12.2259L91.6186 13.0414C92.0369 12.0869 92.3486 11.0626 92.545 9.99817C92.582 9.78544 92.6144 9.56681 92.6422 9.35408C93.1054 5.51906 91.8734 2.29861 89.4279 0.98088C88.2297 0.314834 86.9324 -0.0117579 85.6254 0.0236122H85.0418H75.9593V-0.0118408H57.8266L57.2431 1.37089L50.4763 17.4082L41.5605 38.5332H53.9778L59.1096 26.3723H75.0283C76.4887 26.2751 77.9333 25.9395 79.3264 25.3736C82.8464 24.1091 85.5791 21.9995 88.4506 18.4954ZM74.6578 18.4954H74.4633H74.0372H62.4073L66.2469 9.35408H78.6873C78.7799 9.34788 78.8725 9.34788 78.9652 9.35408C79.3121 9.38114 79.6525 9.48721 79.9702 9.66726C80.8688 10.1459 81.2995 11.3632 81.0494 12.7873C80.9869 13.1562 80.8808 13.5108 80.7344 13.8391L80.8549 13.5614C80.8039 13.7091 80.7483 13.8627 80.6835 14.0104C80.6186 14.1582 80.5492 14.3059 80.4751 14.4477C79.4469 16.4627 77.7471 17.5382 76.1492 18.1173C75.6661 18.3186 75.165 18.4417 74.6578 18.4836V18.4954Z" fill="#F3973D"/>
<path d="M40.4333 43.7806H42.712L41.3735 48.4665L42.5823 46.8769H44.3886L45.2779 43.7687H47.5335L45.2408 51.7992H42.9853L43.805 48.9214H41.2392L40.424 51.7992H38.1406L40.4333 43.7806Z" fill="white"/>
<path d="M54.9676 43.7805C54.8861 43.9741 54.793 44.1598 54.6897 44.3359C54.56 44.5605 54.421 44.785 54.2728 45.0095C54.1418 45.219 53.9996 45.4164 53.8467 45.6005C53.7078 45.7659 53.6059 45.8427 53.541 45.8427H49.8867L49.2105 48.2064L50.336 46.8118H53.0779L51.3827 48.8564H49.0206L48.7566 49.7664H53.3048L53.2446 49.8964L53.152 50.0973L53.0547 50.2982C53.0385 50.3338 53.02 50.3674 52.9991 50.3986C52.9084 50.5473 52.8106 50.6894 52.7074 50.824L52.3461 51.2849L52.0311 51.6573L51.8829 51.8109H45.9082L48.2008 43.7805H54.9676Z" fill="white"/>
<path d="M53.3281 51.8109L55.6439 43.7805H57.9134L56.2043 49.7664H59.9652C59.9281 49.8574 59.8832 49.9426 59.8309 50.0205C59.7336 50.1977 59.6085 50.3927 59.4557 50.6114C59.3029 50.83 59.15 51.0664 58.9925 51.2909C58.8638 51.4734 58.7244 51.6433 58.5757 51.7991L53.3281 51.8109Z" fill="white"/>
<path d="M66.9656 51.8109L68.2439 47.2962L65.0018 51.8109H64.182L63.5429 47.2845L62.2599 51.799H59.9766L62.2924 43.7804H65.1639L65.7707 47.8104L68.6793 43.7804H71.5555L69.2397 51.8109H66.9656Z" fill="white"/>
<path d="M78.9644 43.7804C78.8824 43.9752 78.7879 44.161 78.6819 44.3359C78.5522 44.5604 78.4132 44.7849 78.2697 45.0095C78.1358 45.2176 77.9918 45.415 77.8389 45.6004C77.7 45.7659 77.6027 45.8427 77.5379 45.8427H73.8697L73.1934 48.2063L74.3328 46.8118H77.0747L75.3749 48.8563H73.0128L72.7534 49.7663H77.3017L77.2414 49.8963L77.1442 50.0972C77.1159 50.1662 77.0854 50.2332 77.0515 50.2981C77.0349 50.3346 77.0145 50.3683 76.9913 50.3985C76.9029 50.55 76.8056 50.6923 76.6996 50.824C76.5791 50.9894 76.4587 51.1431 76.3383 51.2849C76.2179 51.4326 76.116 51.5568 76.0233 51.6572C75.9775 51.7136 75.9279 51.765 75.8751 51.8109H69.9004L72.193 43.7804H78.9644Z" fill="white"/>
<path d="M80.9748 45.825H78.7285C78.7753 45.7048 78.8327 45.5918 78.8999 45.4882C79.0064 45.3109 79.1361 45.1041 79.2797 44.8973C79.4233 44.6904 79.5807 44.46 79.7428 44.2532C79.8623 44.0854 79.9957 43.9347 80.1411 43.8041H86.0881C86.0066 43.9978 85.9135 44.1834 85.8102 44.3595C85.6805 44.5841 85.5416 44.8086 85.3934 45.0332C85.2623 45.2426 85.1201 45.4401 84.9673 45.6241C84.8283 45.7895 84.7264 45.8664 84.6662 45.8664H83.2767L81.5677 51.8523H79.2889L80.9748 45.825Z" fill="white"/>
<path d="M90.035 49.2641V49.1755C90.0369 49.0903 90.0244 49.0056 89.998 48.9273C89.9915 48.8898 89.9753 48.8563 89.9512 48.8326C89.9276 48.8089 89.8984 48.7964 89.8683 48.7973H87.4923C87.2676 48.7992 87.0467 48.7236 86.8531 48.5786C86.6637 48.432 86.497 48.2416 86.3622 48.0172C86.2242 47.792 86.1176 47.5381 86.0472 47.2668C85.9768 47.0084 85.9407 46.7368 85.9407 46.4631C85.9472 46.1749 86.0042 45.8922 86.1074 45.6359C86.2186 45.3217 86.3617 45.0276 86.5335 44.7614C86.6998 44.4887 86.8999 44.2531 87.1264 44.064C87.3214 43.8863 87.5539 43.7875 87.7933 43.7805H93.8468C93.656 44.1386 93.4489 44.4819 93.2262 44.8086C92.99 45.1573 92.7306 45.5 92.4481 45.8427H88.5251C88.4418 45.8427 88.363 45.9195 88.3028 46.0673C88.2481 46.1778 88.2148 46.3034 88.2055 46.4336V46.5105L88.2519 46.5754L88.326 46.6582C88.3658 46.7063 88.4107 46.7462 88.4603 46.7764L88.5622 46.8295H90.8178C91.0489 46.8208 91.2763 46.9011 91.4708 47.06C91.6584 47.2098 91.8163 47.4118 91.934 47.6509C92.0502 47.8888 92.1378 48.1478 92.1933 48.4191C92.2438 48.6663 92.2716 48.9201 92.2767 49.1755V49.2641C92.2711 49.5529 92.2225 49.8377 92.1331 50.1031C92.0386 50.3996 91.9122 50.678 91.758 50.9305C91.6084 51.1768 91.4287 51.3902 91.2253 51.5627C91.0401 51.7207 90.8228 51.807 90.6001 51.8109H84.5234C84.5651 51.7105 84.6485 51.5509 84.7689 51.3264C84.8893 51.1018 85.0236 50.8773 85.1626 50.6527C85.3015 50.4282 85.4266 50.2214 85.547 50.0618C85.6674 49.9023 85.7369 49.7959 85.7601 49.7959H89.7988C89.9146 49.7959 89.9841 49.7545 90.0072 49.6599C90.0262 49.5674 90.0355 49.472 90.035 49.3764V49.2641Z" fill="white"/>
</svg>
