<svg width="105" height="38" viewBox="0 0 105 38" fill="none" xmlns="http://www.w3.org/2000/svg">
<g clip-path="url(#clip0_208_987)" filter="url(#filter0_d_208_987)">
<path d="M91.6178 22.2409H100.746L89.9262 0H80.798H80.039L60.8398 22.2409H70.7236H82.5781L88.2721 17.0898L75.2673 16.9773L84.0858 6.76023L91.6178 22.2409Z" fill="#F3973D"/>
<path d="M35.6083 17.6625L39.4134 10.575L39.7742 9.92728L30.6834 9.8591L28.301 9.84206L22.6001 13.725H31.0578C30.4955 14.6699 29.6982 15.4527 28.7438 15.997C27.7894 16.5413 26.7105 16.8285 25.6122 16.8307H16.0279L18.4376 12.3511L19.7241 9.96478C20.4689 8.58264 21.5728 7.42781 22.919 6.62244C24.2652 5.81711 25.8038 5.39122 27.3718 5.38978H37.0684L44.9884 0.00683594H21.1434C19.6948 0.00713853 18.2692 0.370354 16.9965 1.06342C15.7238 1.75649 14.6444 2.7574 13.8565 3.97501C13.7306 4.16933 13.608 4.37047 13.4991 4.57842L9.69401 11.6557L9.33324 12.2796L3.98633 22.2239H27.9504C29.3991 22.2236 30.8246 21.8604 32.0973 21.1673C33.37 20.4742 34.4495 19.4733 35.2373 18.2557C35.3769 18.075 35.496 17.8705 35.6083 17.6625Z" fill="#F3973D"/>
<path d="M68.9962 10.6704C69.6701 10.0271 70.2684 9.30882 70.7796 8.52953C70.9328 8.29431 71.0757 8.05567 71.2153 7.80681C71.3497 7.5622 71.4712 7.31072 71.5794 7.0534L71.3242 7.52385C71.6315 6.97318 71.8606 6.38225 72.0049 5.76817C72.0321 5.64544 72.0559 5.51931 72.0764 5.39658C72.4167 3.18407 71.5114 1.32612 69.7143 0.565888C68.8338 0.18163 67.8805 -0.00678811 66.92 0.0136178H66.4912H59.8169V-0.00683594H46.4922L46.0633 0.790891L41.0908 10.0432L34.5391 22.2307H43.6639L47.435 15.2148H59.1328C60.2059 15.1587 61.2675 14.9651 62.2913 14.6386C64.8779 13.9091 66.886 12.692 68.9962 10.6704ZM58.8605 10.6704H58.7176H58.4045H49.8583L52.6798 5.39658H61.8216C61.8897 5.393 61.9577 5.393 62.0258 5.39658C62.2807 5.41219 62.5309 5.47339 62.7644 5.57726C63.4246 5.8534 63.7412 6.55567 63.5574 7.37726C63.5114 7.59009 63.4335 7.7947 63.3259 7.98408L63.4144 7.82385C63.377 7.90908 63.3361 7.99772 63.2885 8.08294C63.2408 8.16817 63.1898 8.2534 63.1353 8.33522C62.3798 9.49772 61.1307 10.1182 59.9565 10.4523C59.6015 10.5684 59.2332 10.6395 58.8605 10.6636V10.6704Z" fill="#F3973D"/>
<path d="M33.7121 25.2578H35.3866L34.403 27.9612L35.2913 27.0442H36.6187L37.2722 25.251H38.9297L37.2449 29.884H35.5874L36.1898 28.2237H34.3043L33.7053 29.884H32.0273L33.7121 25.2578Z" fill="white"/>
<path d="M44.3936 25.2581C44.3337 25.3698 44.2653 25.4769 44.1894 25.5785C44.0941 25.7081 43.992 25.8376 43.8831 25.9671C43.7867 26.088 43.6823 26.2019 43.5699 26.3081C43.4678 26.4035 43.393 26.4478 43.3453 26.4478H40.6599L40.163 27.8115L40.9901 27.0069H43.005L41.7593 28.1865H40.0235L39.8295 28.7115H43.1717L43.1275 28.7865L43.0594 28.9024L42.9879 29.0183C42.976 29.0388 42.9624 29.0582 42.9471 29.0762C42.8804 29.162 42.8086 29.244 42.7327 29.3217L42.4672 29.5876L42.2358 29.8024L42.1269 29.891H37.7363L39.4211 25.2581H44.3936Z" fill="white"/>
<path d="M43.1875 29.891L44.8893 25.2581H46.557L45.3011 28.7115H48.0647C48.0375 28.764 48.0045 28.8131 47.966 28.8581C47.8946 28.9603 47.8027 29.0728 47.6903 29.199C47.578 29.3251 47.4657 29.4615 47.35 29.591C47.2554 29.6963 47.1529 29.7943 47.0437 29.8842L43.1875 29.891Z" fill="white"/>
<path d="M53.2082 29.891L54.1475 27.2864L51.7651 29.891H51.1627L50.693 27.2796L49.7502 29.8842H48.0723L49.774 25.2581H51.8842L52.3301 27.5831L54.4675 25.2581H56.581L54.8793 29.891H53.2082Z" fill="white"/>
<path d="M62.0259 25.2581C61.9657 25.3705 61.8962 25.4776 61.8183 25.5785C61.723 25.7081 61.6209 25.8376 61.5154 25.9671C61.417 26.0872 61.3112 26.2011 61.1988 26.3081C61.0967 26.4035 61.0253 26.4478 60.9776 26.4478H58.282L57.7851 27.8115L58.6224 27.0069H60.6373L59.3882 28.1865H57.6524L57.4618 28.7115H60.804L60.7598 28.7865L60.6883 28.9024C60.6676 28.9422 60.6451 28.9809 60.6203 29.0183C60.608 29.0393 60.593 29.0588 60.576 29.0762C60.511 29.1636 60.4395 29.2457 60.3616 29.3217C60.2731 29.4171 60.1846 29.5058 60.0961 29.5876C60.0076 29.6728 59.9327 29.7444 59.8647 29.8024C59.831 29.8349 59.7946 29.8646 59.7558 29.891H55.3652L57.05 25.2581H62.0259Z" fill="white"/>
<path d="M63.5042 26.4374H61.8535C61.8879 26.3681 61.9301 26.3029 61.9794 26.2431C62.0577 26.1408 62.153 26.0215 62.2585 25.9022C62.364 25.7829 62.4798 25.6499 62.5989 25.5306C62.6867 25.4338 62.7847 25.3469 62.8916 25.2715H67.2617C67.2018 25.3832 67.1334 25.4903 67.0575 25.5919C66.9622 25.7215 66.8601 25.851 66.7512 25.9806C66.6548 26.1014 66.5504 26.2154 66.438 26.3215C66.3359 26.4169 66.2611 26.4613 66.2168 26.4613H65.1958L63.9399 29.9147H62.2653L63.5042 26.4374Z" fill="white"/>
<path d="M70.1615 28.4217V28.3706C70.1629 28.3214 70.1537 28.2726 70.1343 28.2274C70.1295 28.2057 70.1176 28.1864 70.0999 28.1727C70.0825 28.1591 70.0611 28.1519 70.039 28.1524H68.293C68.1279 28.1535 67.9656 28.1099 67.8233 28.0262C67.6841 27.9417 67.5616 27.8318 67.4625 27.7023C67.3611 27.5724 67.2828 27.4259 67.2311 27.2694C67.1793 27.1203 67.1528 26.9636 67.1528 26.8058C67.1576 26.6395 67.1994 26.4764 67.2753 26.3285C67.357 26.1472 67.4622 25.9775 67.5884 25.824C67.7106 25.6667 67.8577 25.5308 68.0241 25.4217C68.1674 25.3191 68.3382 25.2621 68.5142 25.2581H72.9626C72.8224 25.4647 72.6702 25.6628 72.5065 25.8512C72.3329 26.0524 72.1423 26.2501 71.9347 26.4478H69.052C68.9907 26.4478 68.9328 26.4921 68.8886 26.5774C68.8484 26.6412 68.8239 26.7136 68.8171 26.7887V26.8331L68.8511 26.8705L68.9056 26.9183C68.9349 26.946 68.9679 26.969 69.0043 26.9865L69.0792 27.0171H70.7367C70.9065 27.0121 71.0736 27.0584 71.2166 27.1501C71.3544 27.2365 71.4705 27.3531 71.5569 27.491C71.6424 27.6282 71.7067 27.7776 71.7475 27.9342C71.7846 28.0768 71.8051 28.2232 71.8088 28.3706V28.4217C71.8047 28.5883 71.769 28.7526 71.7033 28.9058C71.6339 29.0768 71.5409 29.2374 71.4276 29.3831C71.3177 29.5251 71.1856 29.6483 71.0362 29.7478C70.9001 29.839 70.7404 29.8887 70.5767 29.891H66.1113C66.142 29.8331 66.2032 29.741 66.2917 29.6115C66.3802 29.4819 66.4789 29.3524 66.581 29.2228C66.6831 29.0933 66.775 28.974 66.8635 28.8819C66.952 28.7899 67.003 28.7285 67.0201 28.7285H69.9879C70.073 28.7285 70.1241 28.7046 70.1411 28.6501C70.155 28.5966 70.1618 28.5417 70.1615 28.4865V28.4217Z" fill="white"/>
</g>
<defs>
<filter id="filter0_d_208_987" x="0" y="0" width="105" height="38" filterUnits="userSpaceOnUse" color-interpolation-filters="sRGB">
<feFlood flood-opacity="0" result="BackgroundImageFix"/>
<feColorMatrix in="SourceAlpha" type="matrix" values="0 0 0 0 0 0 0 0 0 0 0 0 0 0 0 0 0 0 127 0" result="hardAlpha"/>
<feOffset dy="4"/>
<feGaussianBlur stdDeviation="2"/>
<feComposite in2="hardAlpha" operator="out"/>
<feColorMatrix type="matrix" values="0 0 0 0 0 0 0 0 0 0 0 0 0 0 0 0 0 0 0.25 0"/>
<feBlend mode="normal" in2="BackgroundImageFix" result="effect1_dropShadow_208_987"/>
<feBlend mode="normal" in="SourceGraphic" in2="effect1_dropShadow_208_987" result="shape"/>
</filter>
<clipPath id="clip0_208_987">
<rect width="97" height="30" fill="white" transform="translate(4)"/>
</clipPath>
</defs>
</svg>
