<svg width="62" height="62" viewBox="0 0 62 62" fill="none" xmlns="http://www.w3.org/2000/svg">
<rect x="9" y="12" width="41" height="35" fill="white"/>
<path d="M29.9688 1.9375C24.4247 1.9375 19.0051 3.5815 14.3954 6.66162C9.78572 9.74173 6.19288 14.1196 4.07126 19.2417C1.94965 24.3637 1.39453 29.9998 2.47613 35.4374C3.55772 40.8749 6.22743 45.8696 10.1477 49.7898C14.0679 53.7101 19.0626 56.3798 24.5001 57.4614C29.9377 58.543 35.5738 57.9879 40.6959 55.8662C45.8179 53.7446 50.1958 50.1518 53.2759 45.5421C56.356 40.9324 58 35.5128 58 29.9687C58 22.5344 55.0467 15.4045 49.7898 10.1477C44.533 4.89078 37.4031 1.9375 29.9688 1.9375ZM31.1704 19.1562C33.7184 19.1591 36.1613 20.1727 37.9631 21.9744C39.7648 23.7762 40.7784 26.2191 40.7813 28.7671H38.3781C38.3762 26.8561 37.6161 25.024 36.2648 23.6727C34.9135 22.3214 33.0814 21.5613 31.1704 21.5594V19.1562ZM38.9537 46.7875C38.8808 46.7875 31.6656 46.6642 22.3872 37.5503C13.2733 28.2757 13.15 21.0567 13.15 20.9838C13.15 20.0849 18.7563 13.15 19.9952 13.15C20.4251 13.15 20.7596 13.4415 21.1258 13.8788C22.0079 14.929 25.908 21.0847 25.7286 22.1107C25.6426 22.5928 25.2333 22.9591 24.0598 23.9439C23.4815 24.3985 22.9403 24.8984 22.4414 25.4389C22.6804 26.4278 23.0354 27.3851 23.4991 28.2906C25.2269 31.843 28.0975 34.7123 31.6506 36.4384C32.5562 36.9021 33.5134 37.2571 34.5023 37.4961C35.0428 36.9972 35.5427 36.456 35.9973 35.8777C36.9822 34.7042 37.3485 34.2949 37.8306 34.2089C38.8565 34.0221 45.0122 37.9296 46.0624 38.8117C46.4997 39.1854 46.7912 39.5124 46.7912 39.9423C46.7875 41.1812 39.8526 46.7875 38.9537 46.7875ZM44.3843 28.7671C44.3803 25.2638 42.9869 21.9051 40.5097 19.4279C38.0324 16.9506 34.6737 15.5572 31.1704 15.5532V13.15C35.3108 13.1549 39.2802 14.8019 42.2079 17.7296C45.1356 20.6573 46.7826 24.6267 46.7875 28.7671H44.3843Z" fill="#F3973D"/>
</svg>
